<?xml version="1.0" encoding="utf-8"?>
<!-- Generator: Adobe Illustrator 22.1.0, SVG Export Plug-In . SVG Version: 6.00 Build 0)  -->
<svg version="1.1" id="Layer_1" xmlns="http://www.w3.org/2000/svg" xmlns:xlink="http://www.w3.org/1999/xlink" x="0px" y="0px"
	 viewBox="0 0 177.5 57" style="enable-background:new 0 0 177.5 57;" xml:space="preserve">
<style type="text/css">
	.st0{fill:#D28A2A;}
	.st1{fill:#393795;}
	.st2{fill:none;stroke:#393795;stroke-linecap:round;stroke-miterlimit:10;}
	.st3{fill:#010101;}
	.st4{fill:#2A316D;}
	.st5{fill:#CB6828;}
	.st6{fill:#363795;}
</style>
<g>
	<g>
		<path class="st5" d="M36.2,23c0,13.2-5.9,19.5-18.2,19.5C5.9,42.6,0,36.2,0,23V2.3h10.6V23c0,6.8,2.5,10,7.5,10
			c5,0,7.5-3.3,7.5-10V2.3h10.6V23z"/>
		<path class="st5" d="M68.7,20v9.1H53.1V57H42.5V2.3h28.8v9.6H53.1V20H68.7z"/>
		<path class="st6" d="M105.6,26.4c0,10.3-6.1,16.1-16.4,16.1c-10.3,0-16.3-5.9-16.3-16.1c0-10.5,6.1-16.5,16.3-16.5
			C99.6,10,105.6,15.9,105.6,26.4z M95.4,26.4c0-6.1-2.2-8.2-6.2-8.2c-3.9,0-6.1,2.1-6.1,8.2c0,5.8,2.1,7.9,6.1,7.9
			S95.4,32.2,95.4,26.4z"/>
		<path class="st6" d="M141.8,26.4c0,10.3-6.1,16.1-16.4,16.1c-10.3,0-16.3-5.9-16.3-16.1c0-10.5,6.1-16.5,16.3-16.5
			C135.7,10,141.8,15.9,141.8,26.4z M131.6,26.4c0-6.1-2.2-8.2-6.2-8.2c-3.9,0-6.1,2.1-6.1,8.2c0,5.8,2.1,7.9,6.1,7.9
			S131.6,32.2,131.6,26.4z"/>
		<path class="st6" d="M167.1,38.5c-2.6,2.5-4.5,4.1-9.4,4.1c-6.6,0-12.5-4.8-12.5-16.6c0-11.3,4.6-16,11.8-16c3.8,0,7,1.1,10,4.3V0
			h10.4v42h-10.4V38.5z M167.1,22.2c-1.8-2.3-3.8-3.6-6.3-3.6c-3.4,0-5.3,2.1-5.3,7.4c0,5.7,2.3,8.1,5.7,8.1c2.9,0,4.4-1.2,6-3.4
			V22.2z"/>
	</g>
	
		<rect x="112.8" y="-7.6" transform="matrix(-1.836970e-16 1 -1 -1.836970e-16 169.8326 -66.7298)" class="st5" width="11" height="118.4"/>
	
		<rect x="12.8" y="33.3" transform="matrix(-1.836970e-16 1 -1 -1.836970e-16 69.7977 33.305)" class="st5" width="11" height="36.5"/>
</g>
</svg>
